<svg width="250" height="120" viewBox="0 0 250 120" fill="none" xmlns="http://www.w3.org/2000/svg">
  <g opacity="1">
    <path d="M8 96C54 96 88 95 118 90C148 86 176 76 198 62C214 52 228 39 242 20" stroke="#8FAF98" stroke-width="1.85" stroke-linecap="round"/>
    <path d="M118 88C130 76 144 68 160 62" stroke="#B6CCBC" stroke-width="1.35" stroke-linecap="round"/>
    <path d="M160 62C168 52 178 44 188 38" stroke="#B6CCBC" stroke-width="1.25" stroke-linecap="round"/>
    <g transform="translate(132 72) rotate(14)">
      <path d="M0 0C11 -16 26 -20 39 -5C28 7 13 9 0 0Z" fill="#F1F6F1" stroke="#9FB9A6" stroke-width="1"/>
      <path d="M4 0C13 -1 21 -1 30 0" stroke="#87A58F" stroke-width="0.88" stroke-linecap="round"/>
    </g>
    <g transform="translate(170 50) rotate(-10)">
      <path d="M0 0C10 -15 24 -18 36 -5C25 7 12 9 0 0Z" fill="#F1F6F1" stroke="#9FB9A6" stroke-width="0.96"/>
      <path d="M4 0C12 -1 20 -1 28 0" stroke="#87A58F" stroke-width="0.84" stroke-linecap="round"/>
    </g>
  </g>
</svg>
