<svg width="300" height="190" viewBox="0 0 300 190" fill="none" xmlns="http://www.w3.org/2000/svg">
  <g opacity="1">
    <path d="M10 154C64 154 114 154 158 150C196 146 230 136 258 116C274 104 286 90 294 74" stroke="#91AF97" stroke-width="1.78" stroke-linecap="round"/>
    <path d="M162 148C174 130 188 116 206 106" stroke="#B8CAB9" stroke-width="1.46" stroke-linecap="round"/>
    <path d="M222 132C234 122 246 108 258 92" stroke="#B8CAB9" stroke-width="1.38" stroke-linecap="round"/>
    <g transform="translate(176 124) rotate(18)">
      <path d="M0 0C12 -18 29 -22 42 -6C30 8 15 10 0 0Z" fill="#F0F5F0" stroke="#9DB7A3" stroke-width="1.06"/>
      <path d="M4 0C14 -2 23 -2 32 -1" stroke="#839F89" stroke-width="0.94" stroke-linecap="round"/>
    </g>
    <g transform="translate(224 104) rotate(-12)">
      <path d="M0 0C11 -16 26 -19 38 -5C27 7 13 9 0 0Z" fill="#EFF4EF" stroke="#9DB7A3" stroke-width="1.02"/>
      <path d="M4 0C13 -1 21 -1 29 0" stroke="#839F89" stroke-width="0.9" stroke-linecap="round"/>
    </g>
  </g>
</svg>
